<?xml version="1.0" encoding="UTF-8" standalone="no"?>
<!-- Created with Inkscape (http://www.inkscape.org/) -->

<svg
   width="16"
   height="16"
   viewBox="0 0 4.2333333 4.2333333"
   version="1.1"
   id="svg250"
   inkscape:version="1.2.2 (b0a8486541, 2022-12-01)"
   sodipodi:docname="StateActive.svg"
   xmlns:inkscape="http://www.inkscape.org/namespaces/inkscape"
   xmlns:sodipodi="http://sodipodi.sourceforge.net/DTD/sodipodi-0.dtd"
   xmlns="http://www.w3.org/2000/svg"
   xmlns:svg="http://www.w3.org/2000/svg">
  <sodipodi:namedview
     id="namedview252"
     pagecolor="#ffffff"
     bordercolor="#000000"
     borderopacity="0.25"
     inkscape:showpageshadow="2"
     inkscape:pageopacity="0.0"
     inkscape:pagecheckerboard="0"
     inkscape:deskcolor="#d1d1d1"
     inkscape:document-units="mm"
     showgrid="true"
     inkscape:zoom="20.328097"
     inkscape:cx="7.255967"
     inkscape:cy="17.119163"
     inkscape:window-width="1920"
     inkscape:window-height="1023"
     inkscape:window-x="0"
     inkscape:window-y="29"
     inkscape:window-maximized="1"
     inkscape:current-layer="layer1">
    <inkscape:grid
       type="xygrid"
       id="grid371"
       originx="0"
       originy="0" />
  </sodipodi:namedview>
  <defs
     id="defs247" />
  <g
     inkscape:label="Layer 1"
     inkscape:groupmode="layer"
     id="layer1">
    <path
       id="path446-3"
       style="fill:#ffffff;fill-opacity:1;stroke:none;stroke-width:0.169028;stroke-linecap:square"
       d="M 3.96875,2.1166667 A 1.8520834,1.8520833 0 0 1 2.1166667,3.96875 1.8520834,1.8520833 0 0 1 0.26458333,2.1166667 1.8520834,1.8520833 0 0 1 2.1166667,0.26458333 1.8520834,1.8520833 0 0 1 3.96875,2.1166667 Z" />
    <path
       id="path446"
       style="fill:#00ff00;stroke:#000000;stroke-width:0.138558;stroke-linecap:square"
       d="M 3.6348879,2.1166668 A 1.518221,1.5182209 0 0 1 2.1166669,3.6348877 1.518221,1.5182209 0 0 1 0.59844588,2.1166668 1.518221,1.5182209 0 0 1 2.1166669,0.59844588 1.518221,1.5182209 0 0 1 3.6348879,2.1166668 Z" />
  </g>
</svg>
