<?xml version="1.0" encoding="UTF-8" standalone="no"?><!-- Generator: Gravit.io --><svg xmlns="http://www.w3.org/2000/svg" xmlns:xlink="http://www.w3.org/1999/xlink" style="isolation:isolate" viewBox="0 0 1024 1024" width="1024pt" height="1024pt"><defs><clipPath id="_clipPath_6yY02hA3cGSalRFgHY3o0v2EfKNrYfRN"><rect width="1024" height="1024"/></clipPath></defs><g clip-path="url(#_clipPath_6yY02hA3cGSalRFgHY3o0v2EfKNrYfRN)"><defs><filter id="KcfBJBDTFnyoDzJvA8VRLkg25pJRIevQ" x="-200%" y="-200%" width="400%" height="400%" filterUnits="objectBoundingBox" color-interpolation-filters="sRGB"><feGaussianBlur xmlns="http://www.w3.org/2000/svg" stdDeviation="10.132917388300108"/></filter></defs><g filter="url(#KcfBJBDTFnyoDzJvA8VRLkg25pJRIevQ)"><path d=" M 0 0 L 1024 0 L 1024 1024 L 0 1024 L 0 0 Z  M 516.224 455.787 C 488.601 455.787 466.174 478.214 466.174 505.837 C 466.174 533.46 498.753 555.887 516.224 555.887 C 533.695 555.887 592.495 558.591 611.004 566.332 C 629.512 574.073 702.731 660.775 765 638 C 827.269 615.225 838.885 560.705 842 504.664 C 845.115 448.623 831.707 386.478 777 361 C 722.293 335.522 668.248 405.3 611.004 432.996 C 553.759 460.692 543.847 455.787 516.224 455.787 Z " fill-rule="evenodd" fill="rgb(255,255,255)"/></g></g></svg>